<svg width="804" height="804" viewBox="0 0 804 804" fill="none" xmlns="http://www.w3.org/2000/svg">
<circle cx="402" cy="402" r="402" fill="#E5D2D2"/>
<circle cx="401.5" cy="401.5" r="311.5" fill="white"/>
<path d="M424 201.5C424 213.926 413.926 224 401.5 224C389.074 224 379 213.926 379 201.5C379 189.074 389.074 179 401.5 179C413.926 179 424 189.074 424 201.5Z" fill="black"/>
<path d="M532 209C532 217.284 525.284 224 517 224C508.716 224 502 217.284 502 209C502 200.716 508.716 194 517 194C525.284 194 532 200.716 532 209Z" fill="black"/>
<path d="M485 201.5C485 213.926 474.926 224 462.5 224C450.074 224 440 213.926 440 201.5C440 189.074 450.074 179 462.5 179C474.926 179 485 189.074 485 201.5Z" fill="black"/>
<path d="M363 201.5C363 213.926 352.926 224 340.5 224C328.074 224 318 213.926 318 201.5C318 189.074 328.074 179 340.5 179C352.926 179 363 189.074 363 201.5Z" fill="black"/>
<path d="M301 201.5C301 213.926 290.926 224 278.5 224C266.074 224 256 213.926 256 201.5C256 189.074 266.074 179 278.5 179C290.926 179 301 189.074 301 201.5Z" fill="black"/>
<path d="M417 266C417 274.284 410.284 281 402 281C393.716 281 387 274.284 387 266C387 257.716 393.716 251 402 251C410.284 251 417 257.716 417 266Z" fill="black"/>
<path d="M547 266.5C547 278.926 536.926 289 524.5 289C512.074 289 502 278.926 502 266.5C502 254.074 512.074 244 524.5 244C536.926 244 547 254.074 547 266.5Z" fill="black"/>
<path d="M485 266.5C485 278.926 474.926 289 462.5 289C450.074 289 440 278.926 440 266.5C440 254.074 450.074 244 462.5 244C474.926 244 485 254.074 485 266.5Z" fill="black"/>
<path d="M363 266.5C363 278.926 352.926 289 340.5 289C328.074 289 318 278.926 318 266.5C318 254.074 328.074 244 340.5 244C352.926 244 363 254.074 363 266.5Z" fill="black"/>
<path d="M301 266.5C301 278.926 290.926 289 278.5 289C266.074 289 256 278.926 256 266.5C256 254.074 266.074 244 278.5 244C290.926 244 301 254.074 301 266.5Z" fill="black"/>
<path d="M417 331C417 339.284 410.284 346 402 346C393.716 346 387 339.284 387 331C387 322.716 393.716 316 402 316C410.284 316 417 322.716 417 331Z" fill="black"/>
<path d="M539 327.5C539 337.717 530.717 346 520.5 346C510.283 346 502 337.717 502 327.5C502 317.283 510.283 309 520.5 309C530.717 309 539 317.283 539 327.5Z" fill="black"/>
<path d="M485 327.5C485 337.717 476.717 346 466.5 346C456.283 346 448 337.717 448 327.5C448 317.283 456.283 309 466.5 309C476.717 309 485 317.283 485 327.5Z" fill="black"/>
<path d="M363 331.5C363 343.926 352.926 354 340.5 354C328.074 354 318 343.926 318 331.5C318 319.074 328.074 309 340.5 309C352.926 309 363 319.074 363 331.5Z" fill="black"/>
<path d="M301 331.5C301 343.926 290.926 354 278.5 354C266.074 354 256 343.926 256 331.5C256 319.074 266.074 309 278.5 309C290.926 309 301 319.074 301 331.5Z" fill="black"/>
<path d="M424 396.5C424 408.926 413.926 419 401.5 419C389.074 419 379 408.926 379 396.5C379 384.074 389.074 374 401.5 374C413.926 374 424 384.074 424 396.5Z" fill="black"/>
<path d="M532 397C532 405.284 525.284 412 517 412C508.716 412 502 405.284 502 397C502 388.716 508.716 382 517 382C525.284 382 532 388.716 532 397Z" fill="black"/>
<path d="M484 399C484 410.598 474.598 420 463 420C451.402 420 442 410.598 442 399C442 387.402 451.402 378 463 378C474.598 378 484 387.402 484 399Z" fill="black"/>
<path d="M363 396.5C363 408.926 352.926 419 340.5 419C328.074 419 318 408.926 318 396.5C318 384.074 328.074 374 340.5 374C352.926 374 363 384.074 363 396.5Z" fill="black"/>
<path d="M301 396.5C301 408.926 290.926 419 278.5 419C266.074 419 256 408.926 256 396.5C256 384.074 266.074 374 278.5 374C290.926 374 301 384.074 301 396.5Z" fill="black"/>
<path d="M417 462C417 470.284 410.284 477 402 477C393.716 477 387 470.284 387 462C387 453.716 393.716 447 402 447C410.284 447 417 453.716 417 462Z" fill="black"/>
<path d="M543 463.5C543 474.822 533.822 484 522.5 484C511.178 484 502 474.822 502 463.5C502 452.178 511.178 443 522.5 443C533.822 443 543 452.178 543 463.5Z" fill="black"/>
<path d="M482 462C482 472.493 473.493 481 463 481C452.507 481 444 472.493 444 462C444 451.507 452.507 443 463 443C473.493 443 482 451.507 482 462Z" fill="black"/>
<path d="M363 461.5C363 473.926 352.926 484 340.5 484C328.074 484 318 473.926 318 461.5C318 449.074 328.074 439 340.5 439C352.926 439 363 449.074 363 461.5Z" fill="black"/>
<path d="M301 461.5C301 473.926 290.926 484 278.5 484C266.074 484 256 473.926 256 461.5C256 449.074 266.074 439 278.5 439C290.926 439 301 449.074 301 461.5Z" fill="black"/>
<path d="M417 527C417 535.284 410.284 542 402 542C393.716 542 387 535.284 387 527C387 518.716 393.716 512 402 512C410.284 512 417 518.716 417 527Z" fill="black"/>
<path d="M547 526.5C547 538.926 536.926 549 524.5 549C512.074 549 502 538.926 502 526.5C502 514.074 512.074 504 524.5 504C536.926 504 547 514.074 547 526.5Z" fill="black"/>
<path d="M485 526.5C485 538.926 474.926 549 462.5 549C450.074 549 440 538.926 440 526.5C440 514.074 450.074 504 462.5 504C474.926 504 485 514.074 485 526.5Z" fill="black"/>
<path d="M363 526.5C363 538.926 352.926 549 340.5 549C328.074 549 318 538.926 318 526.5C318 514.074 328.074 504 340.5 504C352.926 504 363 514.074 363 526.5Z" fill="black"/>
<path d="M301 526.5C301 538.926 290.926 549 278.5 549C266.074 549 256 538.926 256 526.5C256 514.074 266.074 504 278.5 504C290.926 504 301 514.074 301 526.5Z" fill="black"/>
<path d="M424 591.5C424 603.926 413.926 614 401.5 614C389.074 614 379 603.926 379 591.5C379 579.074 389.074 569 401.5 569C413.926 569 424 579.074 424 591.5Z" fill="black"/>
<path d="M532 584C532 592.284 525.284 599 517 599C508.716 599 502 592.284 502 584C502 575.716 508.716 569 517 569C525.284 569 532 575.716 532 584Z" fill="black"/>
<path d="M485 591.5C485 603.926 474.926 614 462.5 614C450.074 614 440 603.926 440 591.5C440 579.074 450.074 569 462.5 569C474.926 569 485 579.074 485 591.5Z" fill="black"/>
<path d="M363 591.5C363 603.926 352.926 614 340.5 614C328.074 614 318 603.926 318 591.5C318 579.074 328.074 569 340.5 569C352.926 569 363 579.074 363 591.5Z" fill="black"/>
<path d="M301 591.5C301 603.926 290.926 614 278.5 614C266.074 614 256 603.926 256 591.5C256 579.074 266.074 569 278.5 569C290.926 569 301 579.074 301 591.5Z" fill="black"/>
</svg>
